<svg width="40" height="29" viewBox="0 0 40 29" fill="none" xmlns="http://www.w3.org/2000/svg">
<path d="M0 28.4901V24.4837H4.3V2.67095C4.3 1.92902 4.59167 1.29838 5.175 0.779027C5.75833 0.259676 6.46667 0 7.3 0H38.3V2.67095H7.3V24.4837H19V28.4901H0ZM23.95 28.4901C23.3833 28.4901 22.9167 28.2898 22.55 27.8892C22.1833 27.4885 22 27.0359 22 26.5314V7.07802C22 6.5735 22.1833 6.15802 22.55 5.83157C22.9167 5.50512 23.3833 5.3419 23.95 5.3419H37.55C38.1833 5.3419 38.75 5.4977 39.25 5.80932C39.75 6.12093 40 6.54383 40 7.07802V26.5314C40 27.0953 39.7583 27.5627 39.275 27.9337C38.7917 28.3046 38.2167 28.4901 37.55 28.4901H23.95ZM25 24.4837H37V8.01285H25V24.4837Z" fill="black"/>
</svg>
