<svg width="30" height="37" viewBox="0 0 30 37" fill="none" xmlns="http://www.w3.org/2000/svg">
<path d="M15 36.3694C13.8667 36.3694 12.9083 36.0207 12.125 35.3233C11.3417 34.6259 10.95 33.7727 10.95 32.7636H19.05C19.05 33.7727 18.6583 34.6259 17.875 35.3233C17.0917 36.0207 16.1333 36.3694 15 36.3694ZM6.9 30.0037V27.3327H23.1V30.0037H6.9ZM7.15 24.6173C4.95 23.3411 3.20833 21.746 1.925 19.8318C0.641667 17.9176 0 15.7586 0 13.3547C0 9.73413 1.48333 6.60318 4.45 3.96191C7.41667 1.32064 10.9333 0 15 0C19.0667 0 22.5833 1.32064 25.55 3.96191C28.5167 6.60318 30 9.73413 30 13.3547C30 15.7586 29.3667 17.9176 28.1 19.8318C26.8333 21.746 25.0833 23.3411 22.85 24.6173H7.15ZM8.25 21.9463H21.8C23.4 20.9966 24.6667 19.765 25.6 18.2515C26.5333 16.7379 27 15.1057 27 13.3547C27 10.4167 25.825 7.90156 23.475 5.80932C21.125 3.71707 18.3 2.67095 15 2.67095C11.7 2.67095 8.875 3.71707 6.525 5.80932C4.175 7.90156 3 10.4167 3 13.3547C3 15.1057 3.46667 16.7379 4.4 18.2515C5.33333 19.765 6.61667 20.9966 8.25 21.9463Z" fill="black"/>
</svg>
