<svg width="40" height="29" viewBox="0 0 40 29" fill="none" xmlns="http://www.w3.org/2000/svg">
<path d="M16.35 21.1005C17.1167 21.7831 18.225 22.1021 19.675 22.0576C21.125 22.0131 21.7471 22.0205 22.4138 21.1005L33.2138 6.00964L16.9 15.2689C15.9 15.8625 15.3667 16.8121 15.3 18.1179C15.2333 19.4237 15.5833 20.4179 16.35 21.1005ZM19.9 0C21.8 0 23.7833 0.274514 25.85 0.823543C27.9167 1.37257 29.9 2.31482 31.8 3.6503L29.2 5.29738C27.7 4.40707 26.0917 3.74675 24.375 3.31643C22.6583 2.88611 21.1667 2.67095 19.9 2.67095C15.2333 2.67095 11.25 4.15481 7.95 7.12253C4.65 10.0903 3 13.696 3 17.9399C3 19.2754 3.20833 20.6257 3.625 21.9908C4.04167 23.356 4.63333 24.6173 5.4 25.7747H34.35C35.0833 24.7063 35.6667 23.4598 36.1 22.0353C36.5333 20.6108 36.75 19.216 36.75 17.8508C36.75 16.6044 36.5417 15.2615 36.125 13.8222C35.7083 12.3828 34.9667 11.0548 33.9 9.838L35.85 7.52317C37.1167 9.1851 38.0667 10.8544 38.7 12.5312C39.3333 14.208 39.6833 15.8922 39.75 17.5838C39.8167 19.3644 39.6167 21.0411 39.15 22.614C38.6833 24.1869 38 25.6411 37.1 26.9766C36.7 27.6592 36.275 28.0746 35.825 28.223C35.375 28.3714 34.8167 28.4456 34.15 28.4456H5.6C5.03333 28.4456 4.475 28.3195 3.925 28.0672C3.375 27.815 2.96667 27.4514 2.7 26.9766C1.83333 25.5521 1.16667 24.1053 0.7 22.6363C0.233333 21.1673 0 19.6018 0 17.9399C0 15.4767 0.525 13.1544 1.575 10.9732C2.625 8.79188 4.05 6.89253 5.85 5.27513C7.65 3.65772 9.75833 2.37418 12.175 1.42451C14.5917 0.474835 17.1667 0 19.9 0Z" fill="black"/>
</svg>
