<svg width="87" height="85" viewBox="0 0 87 85" fill="none" xmlns="http://www.w3.org/2000/svg">
<path d="M16.0461 72.2527L9.93974 5.3125H77.0602L70.9458 72.242L43.4592 79.6875L16.0461 72.2527Z" fill="#1572B6"/>
<path d="M43.5 73.9978L65.7122 67.9814L70.9376 10.787H43.5V73.9978Z" fill="#33A9DC"/>
<path d="M43.5 35.0386H54.6197L55.3864 26.6316H43.5V18.4211H64.5703L64.3691 20.6231L62.3056 43.2491H43.5V35.0386Z" fill="white"/>
<path d="M43.5517 56.3603L43.5136 56.3709L34.1557 53.9006L33.5575 47.353H25.1212L26.2985 60.2437L43.5109 64.9134L43.5517 64.9028V56.3603Z" fill="#EBEBEB"/>
<path d="M53.9046 42.9011L52.8933 53.8953L43.5217 56.3657V64.9082L60.7477 60.2438L60.8755 58.8572L62.3355 42.9011H53.9046Z" fill="white"/>
<path d="M43.5299 18.4211V26.6316H23.2317L23.0632 24.7855L22.6798 20.6231L22.4786 18.4211H43.5299ZM43.5 35.0386V43.2491H34.259L34.0904 41.403L33.7098 37.2406L33.5086 35.0386H43.5Z" fill="#EBEBEB"/>
</svg>
