<svg width="25" height="25" viewBox="0 0 25 25" fill="none" xmlns="http://www.w3.org/2000/svg">
<path d="M25 12.8123C25 15.6048 24.205 18.1161 22.615 20.3461C21.0262 22.5761 18.9725 24.1186 16.455 24.9748C16.1625 25.0311 15.9475 24.9923 15.8125 24.8586C15.7459 24.7938 15.6934 24.7159 15.6583 24.6299C15.6233 24.5438 15.6064 24.4515 15.6088 24.3586V20.8373C15.6088 19.7586 15.3263 18.9686 14.7625 18.4686C15.3257 18.4121 15.8836 18.3117 16.4313 18.1686C16.9237 18.0348 17.4338 17.8186 17.96 17.5186C18.4659 17.2355 18.9135 16.8588 19.2788 16.4086C19.6313 15.9686 19.9188 15.3848 20.1413 14.6561C20.3638 13.9273 20.475 13.0911 20.475 12.1461C20.475 10.7998 20.0462 9.65357 19.19 8.70857C19.59 7.69607 19.5475 6.56232 19.0588 5.30482C18.755 5.20482 18.3162 5.26732 17.7412 5.48857C17.2197 5.6845 16.7182 5.93022 16.2437 6.22232L15.625 6.62232C14.6087 6.33258 13.5568 6.18699 12.5 6.18982C11.4432 6.1874 10.3912 6.33341 9.375 6.62357C9.14893 6.467 8.91842 6.31694 8.68375 6.17357C8.39625 5.99482 7.9425 5.78107 7.32375 5.53107C6.70625 5.28107 6.23875 5.20607 5.92375 5.30607C5.4475 6.56232 5.40875 7.69607 5.81125 8.70857C4.95375 9.65357 4.52375 10.7998 4.52375 12.1461C4.52375 13.0911 4.63625 13.9248 4.85875 14.6486C5.08125 15.3711 5.36625 15.9548 5.7125 16.3998C6.07154 16.8547 6.51669 17.2345 7.0225 17.5173C7.54875 17.8173 8.06 18.0348 8.5525 18.1673C9.04625 18.3023 9.6025 18.4023 10.2213 18.4686C9.7875 18.8686 9.52125 19.4423 9.42375 20.1873C9.1907 20.3002 8.9447 20.3842 8.69125 20.4373C8.38582 20.4973 8.07498 20.5253 7.76375 20.5211C7.405 20.5211 7.05125 20.4011 6.6975 20.1623C6.345 19.9223 6.04375 19.5748 5.79375 19.1198C5.59846 18.7757 5.32903 18.4794 5.005 18.2523C4.685 18.0298 4.41625 17.8961 4.19875 17.8523L3.87375 17.8023C3.64625 17.8023 3.48875 17.8273 3.40125 17.8773C3.31375 17.9273 3.28875 17.9898 3.32 18.0686C3.35676 18.1534 3.40606 18.2322 3.46625 18.3023C3.52869 18.3774 3.60005 18.4445 3.67875 18.5023L3.79125 18.5848C4.03125 18.6973 4.26625 18.9086 4.5 19.2198C4.73375 19.5311 4.905 19.8148 5.0125 20.0698L5.175 20.4536C5.31625 20.8761 5.555 21.2186 5.8925 21.4798C6.22875 21.7423 6.5925 21.9086 6.9825 21.9798C7.3725 22.0523 7.75 22.0923 8.11375 22.0973C8.47625 22.1023 8.77875 22.0836 9.0175 22.0386L9.39125 21.9723C9.39125 22.3948 9.39375 22.8898 9.4 23.4573L9.4075 24.3573C9.4075 24.5573 9.3375 24.7248 9.195 24.8573C9.055 24.9923 8.8375 25.0311 8.545 24.9748C6.0275 24.1186 3.97375 22.5748 2.385 20.3461C0.795 18.1161 0 15.6048 0 12.8123C0 10.4873 0.55875 8.34482 1.67625 6.38107C2.7581 4.45502 4.32719 2.84714 6.22625 1.71857C8.11937 0.578961 10.2904 -0.0158094 12.5 -0.00017916C14.71 -0.01604 16.8815 0.578739 18.775 1.71857C20.6736 2.84731 22.2422 4.45517 23.3237 6.38107C24.4412 8.34357 25 10.4886 25 12.8123Z" fill="black"/>
</svg>
