<svg width="86" height="85" viewBox="0 0 86 85" fill="none" xmlns="http://www.w3.org/2000/svg">
<path d="M15.8616 72.2527L9.82281 5.3125H76.1772L70.1303 72.242L42.9597 79.6875L15.8616 72.2527Z" fill="#E44F26"/>
<path d="M43 73.9978L64.9569 67.9814L70.1222 10.787H43V73.9978Z" fill="#F1662A"/>
<path d="M43 35.6124H32.0081L31.2503 27.2053H43V18.9949H22.1719L22.3708 21.1996L24.4106 43.8228H43V35.6124ZM43 56.9341L42.9624 56.9447L33.712 54.4771L33.1208 47.9294H24.7814L25.9451 60.8175L42.9624 65.4872L43 65.4766V56.9341Z" fill="#EBEBEB"/>
<path d="M42.9704 35.6124V43.8228H53.1991L52.2369 54.4717L42.9704 56.9421V65.4846L60.0011 60.8175L60.1248 59.431L62.0759 37.8171L62.2801 35.6124H42.9704ZM42.9704 18.9949V27.2053H63.0353L63.2019 25.3619L63.5809 21.1996L63.7798 18.9949H42.9704Z" fill="white"/>
</svg>
