<svg width="21" height="21" viewBox="0 0 21 21" fill="none" xmlns="http://www.w3.org/2000/svg">
<path d="M10.5 0.0833282C13.3302 0.0833282 13.6833 0.0937449 14.7937 0.145828C15.9031 0.197912 16.6583 0.37187 17.3229 0.630203C18.0104 0.894787 18.5896 1.25312 19.1687 1.83125C19.6984 2.35197 20.1083 2.98186 20.3698 3.67708C20.6271 4.34062 20.8021 5.09687 20.8541 6.20624C20.9031 7.31666 20.9166 7.66979 20.9166 10.5C20.9166 13.3302 20.9062 13.6833 20.8541 14.7937C20.8021 15.9031 20.6271 16.6583 20.3698 17.3229C20.109 18.0185 19.6991 18.6486 19.1687 19.1687C18.6479 19.6982 18.018 20.1081 17.3229 20.3698C16.6594 20.6271 15.9031 20.8021 14.7937 20.8542C13.6833 20.9031 13.3302 20.9167 10.5 20.9167C7.66977 20.9167 7.31665 20.9062 6.20623 20.8542C5.09685 20.8021 4.34165 20.6271 3.67706 20.3698C2.98157 20.1088 2.35157 19.6989 1.83123 19.1687C1.30144 18.6481 0.891575 18.0182 0.630188 17.3229C0.371855 16.6594 0.197896 15.9031 0.145813 14.7937C0.0968546 13.6833 0.083313 13.3302 0.083313 10.5C0.083313 7.66979 0.0937296 7.31666 0.145813 6.20624C0.197896 5.09583 0.371855 4.34166 0.630188 3.67708C0.890851 2.98143 1.30082 2.35137 1.83123 1.83125C2.35172 1.30128 2.98168 0.89138 3.67706 0.630203C4.34165 0.37187 5.09581 0.197912 6.20623 0.145828C7.31665 0.0968699 7.66977 0.0833282 10.5 0.0833282ZM10.5 5.29166C9.11864 5.29166 7.79388 5.8404 6.81713 6.81715C5.84038 7.7939 5.29165 9.11866 5.29165 10.5C5.29165 11.8813 5.84038 13.2061 6.81713 14.1828C7.79388 15.1596 9.11864 15.7083 10.5 15.7083C11.8813 15.7083 13.2061 15.1596 14.1828 14.1828C15.1596 13.2061 15.7083 11.8813 15.7083 10.5C15.7083 9.11866 15.1596 7.7939 14.1828 6.81715C13.2061 5.8404 11.8813 5.29166 10.5 5.29166ZM17.2708 5.03125C17.2708 4.68591 17.1336 4.35472 16.8894 4.11053C16.6453 3.86635 16.3141 3.72916 15.9687 3.72916C15.6234 3.72916 15.2922 3.86635 15.048 4.11053C14.8038 4.35472 14.6666 4.68591 14.6666 5.03125C14.6666 5.37658 14.8038 5.70777 15.048 5.95196C15.2922 6.19615 15.6234 6.33333 15.9687 6.33333C16.3141 6.33333 16.6453 6.19615 16.8894 5.95196C17.1336 5.70777 17.2708 5.37658 17.2708 5.03125ZM10.5 7.375C11.3288 7.375 12.1236 7.70424 12.7097 8.29029C13.2957 8.87634 13.625 9.67119 13.625 10.5C13.625 11.3288 13.2957 12.1237 12.7097 12.7097C12.1236 13.2958 11.3288 13.625 10.5 13.625C9.67118 13.625 8.87632 13.2958 8.29027 12.7097C7.70422 12.1237 7.37498 11.3288 7.37498 10.5C7.37498 9.67119 7.70422 8.87634 8.29027 8.29029C8.87632 7.70424 9.67118 7.375 10.5 7.375Z" fill="black"/>
</svg>
