<svg width="87" height="85" viewBox="0 0 87 85" fill="none" xmlns="http://www.w3.org/2000/svg">
<path d="M5.4375 5.3125H81.5625V79.6875H5.4375V5.3125Z" fill="#F5DE19"/>
<path d="M56.5745 63.418C57.2231 64.7052 58.2308 65.7871 59.4815 66.5391C60.7321 67.291 62.1748 67.6824 63.6432 67.668C66.6067 67.668 68.5016 66.2203 68.5016 64.2149C68.5016 61.8242 66.555 60.9689 63.2925 59.5744L61.5036 58.8253C56.3379 56.6764 52.9123 53.9857 52.9123 48.296C52.9123 43.0552 56.9904 39.0628 63.3877 39.0628C65.4585 38.9167 67.5276 39.3696 69.3368 40.3648C71.146 41.3601 72.6152 42.8538 73.5612 44.6596L67.9688 48.1525C67.6045 47.2572 66.9703 46.4911 66.1502 45.956C65.3301 45.4209 64.3629 45.142 63.3768 45.1563C62.9466 45.1142 62.5121 45.1601 62.1011 45.2912C61.69 45.4222 61.3114 45.6355 60.9894 45.9173C60.6674 46.1992 60.409 46.5436 60.2307 46.9284C60.0524 47.3132 59.9581 47.7301 59.9539 48.1525C59.9539 50.2483 61.2833 51.0983 64.3528 52.4025L66.1418 53.1516C72.2209 55.6989 75.6574 58.2941 75.6574 64.1299C75.6574 70.4225 70.5978 73.8703 63.8036 73.8703C61.1564 74.0351 58.5169 73.4479 56.2037 72.1796C53.8905 70.9112 52.0024 69.0159 50.7672 66.7224L56.5745 63.418ZM31.3037 64.0236C32.4265 65.9707 33.4488 67.6175 35.9065 67.6175C38.2555 67.6175 39.74 66.7197 39.74 63.2267V39.4613H46.893V63.3197C46.893 70.5553 42.543 73.8491 36.211 73.8491C33.9728 73.9686 31.75 73.4237 29.8347 72.2858C27.9194 71.148 26.4014 69.4706 25.4801 67.4741L31.3037 64.0236Z" fill="black"/>
</svg>
