<svg width="135" height="21" viewBox="0 0 135 21" fill="none" xmlns="http://www.w3.org/2000/svg">
<path d="M6.3 16.28L0.580002 12.24V10.1L6.3 6.02V8.18L2.2 11.16L6.3 14.14V16.28Z" fill="black"/>
<path d="M7.84094 17L11.2809 0.800003H13.4609L16.9209 17H14.7809L14.0409 12.92H10.7409L9.96094 17H7.84094ZM11.0409 11.3H13.7409L12.3809 4L11.0409 11.3Z" fill="black"/>
<path d="M21.0647 17.16C20.0914 17.16 19.3647 16.8067 18.8847 16.1C18.4047 15.38 18.1647 14.1667 18.1647 12.46V10.22C18.1647 9.34 18.238 8.52667 18.3847 7.78C18.5314 7.02 18.8047 6.41334 19.2047 5.96C19.618 5.50667 20.218 5.28 21.0047 5.28C21.3914 5.28 21.7447 5.36667 22.0647 5.54C22.3847 5.71334 22.6714 5.92667 22.9247 6.18V0.800003H25.0647V17H22.9247V16.26C22.6714 16.5267 22.3914 16.7467 22.0847 16.92C21.7914 17.08 21.4514 17.16 21.0647 17.16ZM21.6047 15.48C21.8047 15.48 22.018 15.4467 22.2447 15.38C22.4714 15.3 22.698 15.1867 22.9247 15.04V7.46C22.738 7.32667 22.5314 7.21334 22.3047 7.12C22.078 7.01334 21.8314 6.96 21.5647 6.96C21.0714 6.96 20.738 7.2 20.5647 7.68C20.3914 8.14667 20.3047 8.71334 20.3047 9.38V12.64C20.3047 13.1733 20.3314 13.66 20.3847 14.1C20.4514 14.5267 20.578 14.8667 20.7647 15.12C20.9514 15.36 21.2314 15.48 21.6047 15.48Z" fill="black"/>
<path d="M27.4323 17V0.800003H29.5723V17H27.4323Z" fill="black"/>
<path d="M33.8827 17.16C33.4293 17.16 33.0293 17.0333 32.6827 16.78C32.336 16.5133 32.0627 16.18 31.8627 15.78C31.6627 15.3667 31.5627 14.9333 31.5627 14.48C31.5627 13.76 31.6827 13.1533 31.9227 12.66C32.1627 12.1667 32.4893 11.7533 32.9027 11.42C33.3293 11.0733 33.816 10.7733 34.3627 10.52C34.9227 10.2667 35.5093 10.02 36.1227 9.78V8.96C36.1227 8.49334 36.096 8.10667 36.0427 7.8C35.9893 7.49334 35.876 7.26667 35.7027 7.12C35.5427 6.96 35.296 6.88 34.9627 6.88C34.6693 6.88 34.4293 6.94667 34.2427 7.08C34.0693 7.21334 33.9427 7.40667 33.8627 7.66C33.7827 7.9 33.7427 8.18667 33.7427 8.52V9.1L31.6227 9.02C31.6493 7.74 31.9427 6.8 32.5027 6.2C33.0627 5.58667 33.9293 5.28 35.1027 5.28C36.2493 5.28 37.0627 5.59334 37.5427 6.22C38.0227 6.84667 38.2627 7.75334 38.2627 8.94V14.22C38.2627 14.58 38.2693 14.9267 38.2827 15.26C38.3093 15.5933 38.336 15.9067 38.3627 16.2C38.4027 16.48 38.436 16.7467 38.4627 17H36.5027C36.4627 16.7867 36.4093 16.52 36.3427 16.2C36.2893 15.8667 36.2493 15.5667 36.2227 15.3C36.0893 15.7533 35.8293 16.18 35.4427 16.58C35.0693 16.9667 34.5493 17.16 33.8827 17.16ZM34.7227 15.32C34.936 15.32 35.136 15.26 35.3227 15.14C35.5093 15.02 35.676 14.8867 35.8227 14.74C35.9693 14.58 36.0693 14.4533 36.1227 14.36V11.08C35.7893 11.2667 35.476 11.4533 35.1827 11.64C34.8893 11.8267 34.6293 12.0267 34.4027 12.24C34.1893 12.44 34.016 12.6733 33.8827 12.94C33.7627 13.1933 33.7027 13.4867 33.7027 13.82C33.7027 14.2867 33.7893 14.6533 33.9627 14.92C34.136 15.1867 34.3893 15.32 34.7227 15.32Z" fill="black"/>
<path d="M40.3183 17V5.44H42.4583V6.58C42.8449 6.22 43.2716 5.91334 43.7383 5.66C44.205 5.40667 44.7183 5.28 45.2783 5.28C45.7449 5.28 46.0983 5.4 46.3383 5.64C46.5916 5.88 46.765 6.18 46.8583 6.54C46.965 6.9 47.0183 7.26667 47.0183 7.64V17H44.8783V8.26C44.8783 7.84667 44.8183 7.52667 44.6983 7.3C44.5783 7.07334 44.3316 6.96 43.9583 6.96C43.7183 6.96 43.465 7.03334 43.1983 7.18C42.945 7.31334 42.6983 7.48 42.4583 7.68V17H40.3183Z" fill="black"/>
<path d="M49.4073 17V0.800003H51.6273V17H49.4073Z" fill="black"/>
<path d="M58.2083 17.16C57.7949 17.16 57.4216 17.06 57.0883 16.86C56.7683 16.6467 56.4883 16.4133 56.2483 16.16V17H54.1083V0.800003H56.2483V6.36C56.5016 6.06667 56.8016 5.81334 57.1483 5.6C57.5083 5.38667 57.935 5.28 58.4283 5.28C59.0283 5.28 59.5016 5.44 59.8483 5.76C60.2083 6.06667 60.475 6.46 60.6483 6.94C60.8216 7.40667 60.935 7.88667 60.9883 8.38C61.0416 8.86 61.0683 9.27334 61.0683 9.62V12.42C61.0683 13.2333 60.9883 14.0067 60.8283 14.74C60.6683 15.46 60.3816 16.0467 59.9683 16.5C59.555 16.94 58.9683 17.16 58.2083 17.16ZM57.7683 15.48C58.1416 15.48 58.4083 15.3467 58.5683 15.08C58.7283 14.8 58.8283 14.4267 58.8683 13.96C58.9083 13.4933 58.9283 12.98 58.9283 12.42V9.62C58.9283 9.14 58.9016 8.7 58.8483 8.3C58.7949 7.88667 58.6816 7.56 58.5083 7.32C58.3349 7.08 58.0616 6.96 57.6883 6.96C57.4083 6.96 57.1416 7.02 56.8883 7.14C56.6483 7.26 56.435 7.39334 56.2483 7.54V14.96C56.435 15.1067 56.6549 15.2333 56.9083 15.34C57.1749 15.4333 57.4616 15.48 57.7683 15.48Z" fill="black"/>
<path d="M63.0736 17V5.44H65.2136V7.08C65.6403 6.37334 66.0669 5.9 66.4936 5.66C66.9203 5.42 67.3469 5.3 67.7736 5.3C67.8269 5.3 67.8736 5.3 67.9136 5.3C67.9669 5.3 68.0336 5.30667 68.1136 5.32V7.68C67.9536 7.61334 67.7669 7.56 67.5536 7.52C67.3536 7.46667 67.1469 7.44 66.9336 7.44C66.6003 7.44 66.2936 7.52 66.0136 7.68C65.7469 7.82667 65.4803 8.12 65.2136 8.56V17H63.0736Z" fill="black"/>
<path d="M71.5194 17.16C71.066 17.16 70.666 17.0333 70.3194 16.78C69.9727 16.5133 69.6994 16.18 69.4994 15.78C69.2994 15.3667 69.1994 14.9333 69.1994 14.48C69.1994 13.76 69.3194 13.1533 69.5594 12.66C69.7994 12.1667 70.126 11.7533 70.5394 11.42C70.966 11.0733 71.4527 10.7733 71.9994 10.52C72.5594 10.2667 73.146 10.02 73.7594 9.78V8.96C73.7594 8.49334 73.7327 8.10667 73.6794 7.8C73.626 7.49334 73.5127 7.26667 73.3394 7.12C73.1794 6.96 72.9327 6.88 72.5994 6.88C72.306 6.88 72.066 6.94667 71.8794 7.08C71.706 7.21334 71.5794 7.40667 71.4994 7.66C71.4194 7.9 71.3794 8.18667 71.3794 8.52V9.1L69.2594 9.02C69.286 7.74 69.5794 6.8 70.1394 6.2C70.6994 5.58667 71.566 5.28 72.7394 5.28C73.886 5.28 74.6994 5.59334 75.1794 6.22C75.6594 6.84667 75.8994 7.75334 75.8994 8.94V14.22C75.8994 14.58 75.906 14.9267 75.9194 15.26C75.946 15.5933 75.9727 15.9067 75.9994 16.2C76.0394 16.48 76.0727 16.7467 76.0994 17H74.1394C74.0994 16.7867 74.046 16.52 73.9794 16.2C73.926 15.8667 73.886 15.5667 73.8594 15.3C73.726 15.7533 73.466 16.18 73.0794 16.58C72.706 16.9667 72.186 17.16 71.5194 17.16ZM72.3594 15.32C72.5727 15.32 72.7727 15.26 72.9594 15.14C73.146 15.02 73.3127 14.8867 73.4594 14.74C73.606 14.58 73.706 14.4533 73.7594 14.36V11.08C73.426 11.2667 73.1127 11.4533 72.8194 11.64C72.526 11.8267 72.266 12.0267 72.0394 12.24C71.826 12.44 71.6527 12.6733 71.5194 12.94C71.3994 13.1933 71.3394 13.4867 71.3394 13.82C71.3394 14.2867 71.426 14.6533 71.5994 14.92C71.7727 15.1867 72.026 15.32 72.3594 15.32Z" fill="black"/>
<path d="M80.955 20.58C80.2617 20.58 79.635 20.5067 79.075 20.36C78.515 20.2133 78.075 19.98 77.755 19.66C77.435 19.34 77.275 18.92 77.275 18.4C77.275 18.0267 77.355 17.7 77.515 17.42C77.675 17.14 77.8817 16.9 78.135 16.7C78.3883 16.4867 78.655 16.3133 78.935 16.18C78.5617 16.0733 78.2817 15.9067 78.095 15.68C77.9083 15.44 77.815 15.1933 77.815 14.94C77.815 14.5133 77.9283 14.1467 78.155 13.84C78.3817 13.5333 78.695 13.2 79.095 12.84C78.655 12.5067 78.3217 12.08 78.095 11.56C77.8683 11.04 77.755 10.32 77.755 9.4C77.755 8.49334 77.875 7.74 78.115 7.14C78.3683 6.52667 78.735 6.06667 79.215 5.76C79.7083 5.44 80.3083 5.28 81.015 5.28C81.6417 5.28 82.1417 5.38667 82.515 5.6C82.9017 5.81334 83.195 6.13334 83.395 6.56C83.4617 6.45334 83.6417 6.27334 83.935 6.02C84.2283 5.75334 84.5683 5.53334 84.955 5.36L85.275 5.22L85.815 6.6C85.6417 6.62667 85.4083 6.69334 85.115 6.8C84.835 6.89334 84.5683 6.99334 84.315 7.1C84.075 7.19334 83.9217 7.27334 83.855 7.34C83.9483 7.56667 84.0283 7.89334 84.095 8.32C84.175 8.74667 84.215 9.12667 84.215 9.46C84.215 10.2467 84.115 10.94 83.915 11.54C83.715 12.14 83.3817 12.6133 82.915 12.96C82.4617 13.2933 81.8283 13.46 81.015 13.46C80.8417 13.46 80.655 13.4467 80.455 13.42C80.255 13.3933 80.075 13.36 79.915 13.32C79.835 13.44 79.7483 13.58 79.655 13.74C79.575 13.9 79.535 14.0533 79.535 14.2C79.535 14.3467 79.6083 14.4667 79.755 14.56C79.915 14.64 80.1617 14.6933 80.495 14.72L82.295 14.88C83.2017 14.96 83.875 15.2333 84.315 15.7C84.755 16.1667 84.975 16.8333 84.975 17.7C84.975 18.3267 84.8283 18.8533 84.535 19.28C84.2417 19.72 83.795 20.0467 83.195 20.26C82.6083 20.4733 81.8617 20.58 80.955 20.58ZM81.115 18.9C81.875 18.9 82.435 18.8067 82.795 18.62C83.155 18.4467 83.335 18.16 83.335 17.76C83.335 17.52 83.2883 17.32 83.195 17.16C83.115 17 82.9617 16.8733 82.735 16.78C82.5083 16.6867 82.1817 16.62 81.755 16.58L79.935 16.42C79.7883 16.5667 79.6483 16.7133 79.515 16.86C79.3817 17.0067 79.275 17.16 79.195 17.32C79.115 17.4933 79.075 17.6733 79.075 17.86C79.075 18.2067 79.2217 18.4667 79.515 18.64C79.8083 18.8133 80.3417 18.9 81.115 18.9ZM81.015 11.96C81.3217 11.96 81.5617 11.9067 81.735 11.8C81.9217 11.68 82.0617 11.5133 82.155 11.3C82.2483 11.0733 82.3083 10.8 82.335 10.48C82.375 10.16 82.395 9.8 82.395 9.4C82.395 9 82.375 8.64 82.335 8.32C82.3083 7.98667 82.2483 7.70667 82.155 7.48C82.075 7.24 81.9417 7.06 81.755 6.94C81.5817 6.82 81.3417 6.76 81.035 6.76C80.7417 6.76 80.495 6.82 80.295 6.94C80.1083 7.06 79.9683 7.23334 79.875 7.46C79.7817 7.67334 79.715 7.94667 79.675 8.28C79.635 8.6 79.615 8.97334 79.615 9.4C79.615 9.76 79.6283 10.1 79.655 10.42C79.695 10.7267 79.7617 10.9933 79.855 11.22C79.9617 11.4467 80.1083 11.6267 80.295 11.76C80.4817 11.8933 80.7217 11.96 81.015 11.96Z" fill="black"/>
<path d="M86.7864 17V5.44H88.9264V17H86.7864ZM86.7864 3.72V1.48H88.9264V3.72H86.7864Z" fill="black"/>
<path d="M91.2167 17V5.44H93.1967V6.54C93.5834 6.1 94.0101 5.77334 94.4767 5.56C94.9434 5.34667 95.4234 5.24 95.9167 5.24C96.3434 5.24 96.7234 5.34667 97.0567 5.56C97.4034 5.77334 97.6501 6.15334 97.7967 6.7C98.2101 6.19334 98.6567 5.82667 99.1367 5.6C99.6301 5.36 100.143 5.24 100.677 5.24C101.05 5.24 101.39 5.33334 101.697 5.52C102.003 5.69334 102.25 5.98 102.437 6.38C102.623 6.76667 102.717 7.28 102.717 7.92V17H100.757V8.06C100.757 7.5 100.663 7.12667 100.477 6.94C100.303 6.74 100.063 6.64 99.7567 6.64C99.4634 6.64 99.1567 6.72667 98.8367 6.9C98.5167 7.06 98.2234 7.28667 97.9567 7.58C97.9567 7.63334 97.9567 7.68667 97.9567 7.74C97.9567 7.79334 97.9567 7.85334 97.9567 7.92V17H95.9967V8.06C95.9967 7.5 95.9034 7.12667 95.7167 6.94C95.5434 6.74 95.3034 6.64 94.9967 6.64C94.7034 6.64 94.3967 6.72667 94.0767 6.9C93.7701 7.06 93.4767 7.28667 93.1967 7.58V17H91.2167Z" fill="black"/>
<path d="M107.99 17.16C107.137 17.16 106.464 16.9867 105.97 16.64C105.477 16.2933 105.124 15.8 104.91 15.16C104.71 14.52 104.61 13.7667 104.61 12.9V9.54C104.61 8.67334 104.71 7.92 104.91 7.28C105.124 6.64 105.477 6.14667 105.97 5.8C106.464 5.45334 107.137 5.28 107.99 5.28C108.844 5.28 109.51 5.45334 109.99 5.8C110.484 6.14667 110.83 6.64 111.03 7.28C111.244 7.92 111.35 8.67334 111.35 9.54V12.9C111.35 13.7667 111.244 14.52 111.03 15.16C110.83 15.8 110.484 16.2933 109.99 16.64C109.51 16.9867 108.844 17.16 107.99 17.16ZM107.99 15.58C108.404 15.58 108.69 15.46 108.85 15.22C109.024 14.98 109.124 14.6667 109.15 14.28C109.19 13.88 109.21 13.4667 109.21 13.04V9.42C109.21 8.98 109.19 8.56667 109.15 8.18C109.124 7.79334 109.024 7.48 108.85 7.24C108.69 6.98667 108.404 6.86 107.99 6.86C107.577 6.86 107.284 6.98667 107.11 7.24C106.937 7.48 106.83 7.79334 106.79 8.18C106.764 8.56667 106.75 8.98 106.75 9.42V13.04C106.75 13.4667 106.764 13.88 106.79 14.28C106.83 14.6667 106.937 14.98 107.11 15.22C107.284 15.46 107.577 15.58 107.99 15.58Z" fill="black"/>
<path d="M114.807 17L112.527 5.44H114.687L116.107 14.74L117.547 5.44H119.627L117.427 17H114.807Z" fill="black"/>
<path d="M120.502 17L124.862 0.800003H126.722L122.342 17H120.502Z" fill="black"/>
<path d="M128.465 16.28V14.14L132.585 11.14L128.465 8.18V6.02L134.205 10.08V12.22L128.465 16.28Z" fill="black"/>
</svg>
