<svg width="85" height="85" viewBox="0 0 85 85" fill="none" xmlns="http://www.w3.org/2000/svg">
<path d="M69.3547 46.6756C67.019 46.6787 64.7146 47.2128 62.6158 48.2375C61.9586 47.147 61.4512 45.973 61.107 44.7472C60.9093 43.7863 60.8636 42.8003 60.9716 41.8253C61.1986 40.7524 61.4931 39.6949 61.8534 38.659C61.8401 38.5236 61.6914 37.8834 60.1959 37.8622C58.7005 37.8409 57.4122 38.1464 57.2741 38.5422C57.0143 39.2651 56.8057 40.0053 56.6498 40.7575C55.4122 43.8109 53.8887 46.7405 52.0997 49.5072C51.0974 47.864 50.6851 45.9283 50.9309 44.0194C51.158 42.9464 51.4525 41.8889 51.8128 40.8531C51.7995 40.7176 51.6508 40.0775 50.1553 40.0562C48.6598 40.035 47.3716 40.3405 47.2334 40.7362C47.0953 41.132 46.92 42.0644 46.6092 42.9515C46.2984 43.8387 42.67 51.9456 41.7191 54.0361C41.2303 55.0986 40.808 55.9645 40.5105 56.5489C40.4964 56.5868 40.4786 56.6233 40.4573 56.6578L40.0509 57.4334V57.4467C39.8464 57.8133 39.6286 58.1533 39.5197 58.1533C39.3297 57.3944 39.3389 56.5993 39.5462 55.845C40.0775 53.032 41.3791 48.6598 41.3658 48.5084C41.3658 48.4261 41.6101 47.6664 40.5237 47.2733C40.2718 47.1534 39.9888 47.1145 39.7139 47.1621C39.4389 47.2097 39.1855 47.3413 38.9884 47.5389C38.8928 47.5389 38.8264 47.77 38.8264 47.77C38.8264 47.77 40.0084 42.8533 36.5712 42.8533C35.2327 43.1225 33.9616 43.6567 32.8326 44.4244C31.7036 45.1922 30.7395 46.1779 29.997 47.3237C29.0727 47.8258 27.1044 48.8989 24.998 50.0544C24.2011 50.5033 23.367 50.9522 22.5941 51.3825C22.5409 51.3294 22.4852 51.2603 22.432 51.2072C18.2484 46.75 10.5586 43.605 10.8906 37.6417C11.0128 35.4689 11.7592 29.7633 25.6567 22.8331C37.0945 17.1965 46.1975 18.7584 47.7727 22.2222C50.0278 27.1681 42.8958 36.3508 31.0781 37.6815C29.7707 37.9468 28.4205 37.9148 27.1271 37.5879C25.8338 37.261 24.6304 36.6476 23.6061 35.793C22.9819 35.113 22.8862 35.0731 22.6552 35.2086C22.2753 35.4131 22.5197 36.024 22.6552 36.3773C23.106 37.1932 23.7158 37.9104 24.4485 38.4866C25.1812 39.0629 26.0219 39.4864 26.9211 39.7322C31.5701 40.7368 36.4173 40.2565 40.7787 38.3589C47.9506 35.5884 53.5287 27.8853 51.8925 21.4333C50.2483 14.8856 39.3816 12.7261 29.0966 16.3864C22.6545 18.5541 16.702 21.9685 11.5786 26.435C5.91281 31.7342 5.01765 36.3375 5.38421 38.2686C6.71234 45.1164 16.1447 49.5709 19.9192 52.878C19.7487 52.9749 19.5769 53.0697 19.4039 53.1622C17.5153 54.0998 10.3169 57.8637 8.51328 61.8428C6.47593 66.3584 8.84 69.5858 10.4019 70.0214C12.7553 70.5848 15.226 70.3992 17.4689 69.4906C19.7117 68.582 21.615 66.9957 22.9128 64.9533C24.018 63.2591 24.6973 61.323 24.8929 59.3098C25.0886 57.2965 24.7947 55.2658 24.0364 53.3906C24.0236 53.3603 24.0056 53.3324 23.9833 53.3083L25.4628 52.4397C26.3618 51.9082 27.2722 51.3963 28.1934 50.9044C27.6405 52.4993 27.3158 54.1644 27.2292 55.8503C27.0415 58.4342 27.8322 60.9943 29.4445 63.0222C29.6899 63.2334 29.9747 63.3938 30.2824 63.4941C30.5902 63.5944 30.9148 63.6326 31.2375 63.6065C32.8312 63.6065 33.5617 62.2784 34.3612 60.7006C35.3387 58.7722 36.2206 56.5303 36.2206 56.5303C36.2206 56.5303 35.1209 62.5892 38.1092 62.5892C39.1956 62.5892 40.2953 61.1761 40.7867 60.4642V60.4775L40.8691 60.342L41.0444 60.0578V60.0312C41.48 59.2715 42.4575 57.545 43.9105 54.6789C45.7858 50.984 47.592 46.3648 47.592 46.3648C47.7662 47.38 48.0067 48.3826 48.3119 49.3664C48.7494 50.5589 49.2667 51.7205 49.8605 52.8434C49.4248 53.4544 49.1539 53.7944 49.1539 53.7944L49.1672 53.8076C48.8139 54.2698 48.4341 54.7719 48.0117 55.2606C46.7551 56.6421 45.5893 58.1034 44.5214 59.6355C44.3627 59.8928 44.3082 60.2009 44.3689 60.4971C44.4296 60.7932 44.601 61.0551 44.8481 61.2292C45.4073 61.5202 46.0447 61.6253 46.6677 61.5294C47.6065 61.4764 48.5297 61.2653 49.3983 60.9051C50.2377 60.6097 51.0296 60.1937 51.7491 59.67C52.4908 59.1561 53.0878 58.4601 53.4827 57.6488C53.8777 56.8375 54.0573 55.9382 54.0042 55.0375C53.9207 53.9028 53.6308 52.7929 53.1489 51.7623C53.2844 51.5711 53.4145 51.3825 53.542 51.1912C55.0522 48.9371 56.4133 46.5866 57.6167 44.1548C57.7909 45.17 58.0314 46.1726 58.3366 47.1564C58.6974 48.1869 59.1416 49.1863 59.6647 50.1447C57.9273 51.4813 56.5589 53.2383 55.6883 55.25C54.833 57.723 55.497 58.8359 56.7508 59.0936C57.4368 59.1409 58.1228 59.0004 58.735 58.6872C59.6351 58.3913 60.4831 57.9557 61.2478 57.3962C62.0541 56.9204 62.7295 56.2515 63.2131 55.4498C63.6967 54.6481 63.9734 53.7388 64.0183 52.8036C63.958 51.8701 63.7472 50.9525 63.3941 50.0862C65.6867 49.1906 68.1724 48.905 70.6084 49.2575C77.0737 50.0172 78.3514 54.052 78.107 55.752C77.9924 56.3547 77.7501 56.9258 77.3964 57.4271C77.0427 57.9283 76.5858 58.348 76.0564 58.658C75.6075 58.9422 75.4587 59.0378 75.4986 59.2423C75.5517 59.5425 75.7642 59.5265 76.1494 59.4734C77.1238 59.1706 77.9835 58.5794 78.6152 57.778C79.2468 56.9766 79.6207 56.0026 79.6875 54.9844C79.892 51 76.0883 46.6305 69.3627 46.6703L69.3547 46.6756ZM19.4703 63.4844C17.3241 65.8219 14.3358 66.7037 13.0448 65.9573C11.6583 65.1605 12.2028 61.7073 14.8378 59.2317C16.4009 57.8247 18.0903 56.5647 19.8847 55.4678C20.1981 55.2766 20.6603 55.0056 21.2128 54.6709L21.3616 54.5886L21.6883 54.3841C22.159 55.9613 22.2017 57.6354 21.812 59.2346C21.4222 60.8338 20.614 62.3006 19.4703 63.4844ZM35.0917 52.8594C34.3453 54.6789 32.7834 59.3406 31.8325 59.0803C31.017 58.8625 30.5044 55.3297 31.6705 51.8394C32.2592 50.1592 33.1168 48.5857 34.2098 47.1803C35.3786 45.8761 36.6695 45.4405 36.9803 45.9717C36.6968 48.3487 36.0602 50.6702 35.0917 52.8594ZM47.9825 59.0272C47.6691 59.1892 47.3716 59.2928 47.2361 59.2184C47.1405 59.1653 47.3716 58.9528 47.3716 58.9528C47.3716 58.9528 48.9892 57.213 49.6267 56.4267C49.9933 55.9645 50.4236 55.4226 50.8911 54.8091V54.9844C50.8911 57.0616 48.8803 58.4614 47.9852 59.0325L47.9825 59.0272ZM57.9275 56.7587C57.6964 56.5967 57.7362 56.0522 58.5119 54.3548C59.0512 53.2647 59.8046 52.2945 60.7272 51.502C60.8686 51.9041 60.9422 52.3269 60.945 52.7531C60.9555 53.6603 60.6654 54.5455 60.12 55.2706C59.5747 55.9956 58.8047 56.5198 57.9302 56.7614L57.9275 56.7587Z" fill="#CD6799"/>
</svg>
