<svg width="25" height="25" viewBox="0 0 25 25" fill="none" xmlns="http://www.w3.org/2000/svg">
<path d="M12.5 0C9.18555 0 6.00391 1.31777 3.66211 3.66113C1.3179 6.00542 0.000649355 9.18473 0 12.5C0 15.8139 1.31836 18.9955 3.66211 21.3389C6.00391 23.6822 9.18555 25 12.5 25C15.8145 25 18.9961 23.6822 21.3379 21.3389C23.6816 18.9955 25 15.8139 25 12.5C25 9.18613 23.6816 6.00449 21.3379 3.66113C18.9961 1.31777 15.8145 0 12.5 0Z" fill="black"/>
<path d="M5.93303 11.5057C9.57756 9.70101 12.0073 8.51115 13.2221 7.93631C16.6948 6.29483 17.4155 6.00974 17.8862 6.00008C17.9897 5.9982 18.2201 6.02728 18.3705 6.1655C18.4955 6.28206 18.5307 6.43971 18.5483 6.55039C18.5639 6.66096 18.5854 6.91297 18.5678 7.10969C18.3803 9.35664 17.5658 14.8093 17.1518 17.326C16.978 18.3909 16.6322 18.7479 16.2983 18.7828C15.5717 18.8587 15.0209 18.2375 14.3178 17.7137C13.2182 16.8937 12.5971 16.3835 11.5287 15.5835C10.2944 14.659 11.0951 14.1507 11.7983 13.3203C11.9819 13.103 15.1811 9.79582 15.2416 9.49586C15.2494 9.45833 15.2573 9.31845 15.183 9.24474C15.1108 9.1708 15.0033 9.19612 14.9252 9.2161C14.8139 9.24452 13.058 10.5652 9.65178 13.1778C9.15373 13.5672 8.70256 13.7571 8.29631 13.7471C7.851 13.7362 6.99163 13.4602 6.35295 13.2244C5.5717 12.9351 4.94866 12.7821 5.00334 12.2908C5.03069 12.035 5.34124 11.7732 5.93303 11.5057Z" fill="#BFE55E"/>
</svg>
