<svg width="86" height="85" viewBox="0 0 86 85" fill="none" xmlns="http://www.w3.org/2000/svg">
<g clip-path="url(#clip0_17_131)">
<path d="M67.9024 40.6566C67.9024 36.1516 66.263 33.0331 64.8601 30.6053L64.4301 29.9147C62.7263 27.2053 61.2374 24.8253 61.2374 22.0522C61.2374 18.7053 63.8066 15.5816 67.4294 15.5816C67.5369 15.5816 67.639 15.5922 67.7411 15.5975L67.9078 15.6134C61.1147 9.44637 52.2238 6.02923 43 6.04031C36.8869 6.03721 30.869 7.53749 25.4886 10.406C20.1083 13.2744 15.5346 17.421 12.1798 22.4719C13.0398 22.4984 13.8621 22.5197 14.5555 22.5197C18.4094 22.5197 24.381 22.0575 24.381 22.0575C26.3698 21.9406 26.6063 24.8253 24.6175 25.0591C24.6175 25.0591 22.6234 25.2928 20.3981 25.4044L33.8356 64.8975L41.8981 40.9594L36.1469 25.3991C34.1635 25.2822 32.2823 25.0537 32.2823 25.0537C30.2935 24.9369 30.53 21.93 32.5134 22.0469C32.5134 22.0469 38.6086 22.5091 42.2314 22.5091C46.0906 22.5091 52.0676 22.0469 52.0676 22.0469C54.0564 21.93 54.2875 24.82 52.2988 25.0537C52.2988 25.0537 50.2993 25.2822 48.0794 25.3991L61.4094 64.5894L65.0859 52.4397L65.3761 51.5206C66.8274 46.9519 67.897 43.5784 67.897 40.6512L67.9024 40.6566ZM6.11139 42.5C6.11102 49.3465 8.06079 56.0547 11.7376 61.8571C15.4143 67.6595 20.6696 72.3216 26.9019 75.31L9.29876 27.6569C7.19085 32.3276 6.1047 37.3857 6.11139 42.5Z" fill="white"/>
<path d="M32.5779 77.4722L43.6504 45.6875L54.9863 76.3937C55.0615 76.569 55.1475 76.7337 55.2496 76.8931C47.942 79.4376 40.0087 79.6403 32.5779 77.4722ZM75.3629 25.0059C75.5241 26.1694 75.6155 27.4125 75.6155 28.7565C75.6155 32.454 74.9168 36.6137 72.8098 41.8147L61.5438 74.0084C69.8573 69.2344 75.9553 61.4396 78.5378 52.2857C81.1203 43.1318 79.9829 33.3429 75.3683 25.0059H75.3629Z" fill="white"/>
<path fill-rule="evenodd" clip-rule="evenodd" d="M0 42.5C0 19.0666 19.2909 0 43 0C66.7038 0 86 19.0666 86 42.5C86 65.9334 66.7038 85 43 85C19.2909 85 0 65.9334 0 42.5ZM1.97263 42.5C1.97263 64.8603 20.3766 83.0503 43 83.0503C65.618 83.0503 84.022 64.8603 84.022 42.5C84.022 20.1344 65.618 1.94969 43 1.94969C20.3713 1.94969 1.97263 20.1344 1.97263 42.5Z" fill="white"/>
</g>
<defs>
<clipPath id="clip0_17_131">
<rect width="86" height="85" fill="white"/>
</clipPath>
</defs>
</svg>
